<?xml version="1.0" standalone="no"?>
<!DOCTYPE svg PUBLIC "-//W3C//DTD SVG 20010904//EN"
 "http://www.w3.org/TR/2001/REC-SVG-20010904/DTD/svg10.dtd">
<svg version="1.0" xmlns="http://www.w3.org/2000/svg"
 width="130.000000pt" height="130.000000pt" viewBox="0 0 130.000000 130.000000"
 preserveAspectRatio="xMidYMid meet">
<metadata>
Created by potrace 1.14, written by Peter Selinger 2001-2017
</metadata>
<g transform="translate(0.000000,130.000000) scale(0.100000,-0.100000)"
fill="#000000" stroke="none">
<path d="M540 867 c-17 -18 -48 -59 -68 -92 -42 -71 -47 -75 -89 -75 -34 0
-37 4 -34 55 1 23 -1 26 -9 15 -5 -8 -10 -28 -10 -43 0 -22 7 -31 32 -42 18
-7 36 -11 40 -9 16 10 7 -12 -19 -51 -14 -22 -27 -42 -29 -44 -2 -2 -27 -5
-57 -7 -94 -7 -151 -41 -140 -85 11 -40 70 -32 152 22 28 19 51 37 51 42 0 4
4 6 10 2 5 -3 77 -7 161 -10 164 -4 202 4 197 39 -4 24 -27 34 -24 10 1 -21
-41 -35 -66 -23 -27 14 -9 47 56 101 68 57 142 95 198 102 74 9 61 -21 -66
-154 -162 -170 -187 -203 -161 -214 8 -3 24 9 38 27 62 80 154 159 256 221
105 64 104 48 -7 -69 -51 -54 -72 -84 -70 -99 4 -26 36 -32 63 -12 19 15 18
15 -15 9 l-35 -6 19 29 c11 16 29 38 40 49 47 45 96 110 96 127 0 42 -89 6
-190 -77 -13 -11 2 9 33 44 31 36 57 69 58 75 0 6 2 19 4 29 5 26 -29 45 -77
40 -107 -11 -295 -154 -274 -209 3 -8 0 -15 -7 -15 -23 -3 -202 3 -206 6 -7 7
72 127 88 133 30 11 117 80 134 106 21 32 21 50 1 67 -26 22 -42 19 -74 -14z
m80 -4 c0 -18 -49 -74 -89 -102 -57 -38 -66 -39 -44 -3 42 68 85 112 109 112
13 0 24 -3 24 -7z m-321 -318 c5 -12 -75 -55 -102 -55 -28 0 -15 22 26 46 39
21 69 25 76 9z"/>
<path d="M617 696 c21 -28 28 -26 18 3 -3 12 -13 21 -21 21 -12 0 -12 -4 3
-24z"/>
</g>
</svg>
